<?xml version="1.0" encoding="UTF-8" standalone="no"?>
<!-- Generator: Adobe Illustrator 16.2.0, SVG Export Plug-In . SVG Version: 6.00 Build 0)  -->

<svg
   version="1.1"
   id="Layer_1"
   x="0px"
   y="0px"
   width="20.59236"
   height="16.952"
   viewBox="0 0 20.592359 16.952"
   enable-background="new 0 0 231.436 89.349"
   xml:space="preserve"
   sodipodi:docname="test.svg"
   inkscape:version="1.2.2 (b0a8486541, 2022-12-01)"
   inkscape:export-filename="test.svg"
   inkscape:export-xdpi="96"
   inkscape:export-ydpi="96"
   xmlns:inkscape="http://www.inkscape.org/namespaces/inkscape"
   xmlns:sodipodi="http://sodipodi.sourceforge.net/DTD/sodipodi-0.dtd"
   xmlns:xlink="http://www.w3.org/1999/xlink"
   xmlns="http://www.w3.org/2000/svg"
   xmlns:svg="http://www.w3.org/2000/svg"><defs
   id="defs599" /><sodipodi:namedview
   id="namedview597"
   pagecolor="#ffffff"
   bordercolor="#000000"
   borderopacity="0.25"
   inkscape:showpageshadow="2"
   inkscape:pageopacity="0.0"
   inkscape:pagecheckerboard="0"
   inkscape:deskcolor="#d1d1d1"
   showgrid="false"
   inkscape:zoom="20"
   inkscape:cx="3.625"
   inkscape:cy="1.825"
   inkscape:window-width="2560"
   inkscape:window-height="1361"
   inkscape:window-x="0"
   inkscape:window-y="0"
   inkscape:window-maximized="1"
   inkscape:current-layer="Layer_1" />
<g
   id="g594"
   transform="translate(-105.763,-36.862)">
	<g
   id="g335">
		<linearGradient
   id="SVGID_1_"
   gradientUnits="userSpaceOnUse"
   x1="136.2944"
   y1="44.936501"
   x2="231.436"
   y2="44.936501">
			<stop
   offset="0"
   style="stop-color:#22679B"
   id="stop328" />
			<stop
   offset="1"
   style="stop-color:#6BB3DA"
   id="stop330" />
		</linearGradient>
		<path
   fill="url(#SVGID_1_)"
   d="m 230.761,45.611 h -93.792 c -0.373,0 -0.675,-0.302 -0.675,-0.675 0,-0.372 0.302,-0.674 0.675,-0.674 h 93.792 c 0.373,0 0.675,0.302 0.675,0.674 0,0.374 -0.302,0.675 -0.675,0.675 z"
   id="path333"
   style="fill:url(#SVGID_1_)" />
	</g>
	<g
   id="g344">
		<linearGradient
   id="SVGID_2_"
   gradientUnits="userSpaceOnUse"
   x1="136.96919"
   y1="44.936501"
   x2="136.96919"
   y2="44.936501">
			<stop
   offset="0"
   style="stop-color:#22679B"
   id="stop337" />
			<stop
   offset="1"
   style="stop-color:#6BB3DA"
   id="stop339" />
		</linearGradient>
		<path
   fill="none"
   stroke="url(#SVGID_2_)"
   stroke-linecap="round"
   stroke-miterlimit="10"
   d="M 136.969,44.937"
   id="path342"
   style="stroke:url(#SVGID_2_)" />
	</g>
	<g
   id="g359">
		<defs
   id="defs347"><path
     id="SVGID_3_"
     d="m 0.896,6.719 c 0,2.538 0.896,4.852 4.851,8.098 l 1.681,1.381 c 3.209,2.651 4.292,4.143 4.292,6.718 0,2.39 -1.755,4.965 -5.338,4.965 -2.5,0 -4.964,-1.045 -5.523,-3.808 -0.113,-0.523 -0.113,-1.045 -0.113,-1.381 0,-0.298 -0.037,-0.41 -0.26,-0.41 -0.187,0 -0.262,0.187 -0.299,0.597 C 0.149,23.477 0,24.969 0,26.836 c 0,1.007 0.038,1.156 0.56,1.418 1.53,0.746 3.247,1.008 5.001,1.008 2.015,0 4.031,-0.448 5.636,-1.568 2.576,-1.829 3.172,-4.666 3.172,-6.196 0,-2.986 -1.045,-5.3 -5.449,-8.771 L 7.875,11.906 C 4.292,9.107 3.322,7.764 3.322,5.636 c 0,-2.725 2.015,-4.329 4.591,-4.329 3.433,0 4.44,1.567 4.664,1.977 0.225,0.412 0.449,1.419 0.486,1.867 0.037,0.298 0.075,0.485 0.298,0.485 0.187,0 0.262,-0.261 0.262,-0.859 0,-2.538 0.15,-3.769 0.15,-3.956 C 13.773,0.635 13.698,0.56 13.399,0.56 13.1,0.56 12.802,0.522 12.093,0.374 11.159,0.15 10.077,0 8.622,0 3.882,0 0.896,2.725 0.896,6.719" /></defs>
		<clipPath
   id="SVGID_4_">
			<use
   xlink:href="#SVGID_3_"
   overflow="visible"
   id="use349" />
		</clipPath>
		
			<linearGradient
   id="SVGID_5_"
   gradientUnits="userSpaceOnUse"
   x1="-82.734901"
   y1="259.08301"
   x2="-81.734901"
   y2="259.08301"
   gradientTransform="matrix(0,-29.2618,-29.2618,0,7588.4346,-2391.7114)">
			<stop
   offset="0"
   style="stop-color:#6BB3DA"
   id="stop352" />
			<stop
   offset="1"
   style="stop-color:#22679B"
   id="stop354" />
		</linearGradient>
		<rect
   clip-path="url(#SVGID_4_)"
   fill="url(#SVGID_5_)"
   width="14.369"
   height="29.261999"
   id="rect357"
   x="0"
   y="0"
   style="fill:url(#SVGID_5_)" />
	</g>
	<g
   id="g374">
		<defs
   id="defs362"><path
     id="SVGID_6_"
     d="M 41.538,0.412 C 41.239,0.485 40.642,0.56 39.933,0.598 39.074,0.635 31.648,0.635 31.386,0.635 L 29.856,0.56 C 29.035,0.522 28.027,0.522 27.168,0.522 c -0.41,0 -0.596,0.076 -0.596,0.299 0,0.149 0.148,0.224 0.297,0.224 0.337,0 0.971,0.038 1.27,0.113 1.232,0.261 1.53,0.857 1.604,2.126 0.076,1.195 0.076,2.24 0.076,8.063 v 6.568 c 0,3.583 0,6.532 -0.187,8.1 -0.149,1.082 -0.336,1.903 -1.083,2.053 -0.336,0.073 -0.783,0.148 -1.119,0.148 -0.224,0 -0.299,0.112 -0.299,0.224 0,0.224 0.187,0.299 0.597,0.299 0.56,0 1.418,-0.075 2.165,-0.075 0.784,-0.037 1.418,-0.037 1.493,-0.037 0.559,0 1.456,0.037 2.911,0.112 1.456,0.038 3.508,0.112 6.307,0.112 1.457,0 1.754,0 2.016,-0.97 0.187,-0.784 0.485,-3.322 0.485,-3.62 0,-0.262 0,-0.561 -0.224,-0.561 -0.187,0 -0.261,0.149 -0.336,0.561 -0.26,1.529 -0.708,2.276 -1.679,2.686 -0.97,0.411 -2.612,0.411 -3.583,0.411 -3.658,0 -4.217,-0.485 -4.33,-3.06 -0.036,-0.784 0,-5.113 0,-6.383 v -3.284 c 0,-0.15 0.075,-0.261 0.261,-0.261 0.635,0 4.33,0.074 5.338,0.186 1.456,0.149 1.791,0.784 1.941,1.306 0.149,0.486 0.149,0.858 0.149,1.232 0,0.187 0.075,0.336 0.261,0.336 0.261,0 0.261,-0.411 0.261,-0.71 0,-0.26 0.075,-1.641 0.15,-2.388 0.112,-1.231 0.298,-1.866 0.298,-2.09 0,-0.223 -0.074,-0.299 -0.186,-0.299 -0.149,0 -0.299,0.187 -0.56,0.485 -0.336,0.374 -0.858,0.449 -1.755,0.523 -0.857,0.075 -5.448,0.075 -5.933,0.075 -0.188,0 -0.225,-0.112 -0.225,-0.374 v -10.3 c 0,-0.262 0.075,-0.374 0.225,-0.374 0.41,0 4.478,0.037 5.112,0.112 2.016,0.224 2.389,0.672 2.651,1.269 0.186,0.448 0.223,1.083 0.223,1.344 0,0.299 0.075,0.486 0.299,0.486 0.149,0 0.224,-0.225 0.261,-0.412 0.075,-0.448 0.149,-2.089 0.187,-2.463 0.112,-1.045 0.298,-1.493 0.298,-1.754 0,-0.186 -0.037,-0.336 -0.148,-0.336 -0.188,0 -0.337,0.15 -0.523,0.188" /></defs>
		<clipPath
   id="SVGID_7_">
			<use
   xlink:href="#SVGID_6_"
   overflow="visible"
   id="use364" />
		</clipPath>
		
			<linearGradient
   id="SVGID_8_"
   gradientUnits="userSpaceOnUse"
   x1="-82.741699"
   y1="259.1113"
   x2="-81.741699"
   y2="259.1113"
   gradientTransform="matrix(0,-28.6265,-28.6265,0,7452.3027,-2339.7593)">
			<stop
   offset="0"
   style="stop-color:#6BB3DA"
   id="stop367" />
			<stop
   offset="1"
   style="stop-color:#22679B"
   id="stop369" />
		</linearGradient>
		<rect
   x="26.572001"
   y="0.22400001"
   clip-path="url(#SVGID_7_)"
   fill="url(#SVGID_8_)"
   width="16.533001"
   height="28.627001"
   id="rect372"
   style="fill:url(#SVGID_8_)" />
	</g>
	<g
   id="g389">
		<defs
   id="defs377"><path
     id="SVGID_9_"
     d="m 60.122,0.635 c -0.299,0 -2.539,-0.113 -4.218,-0.113 -0.411,0 -0.597,0.076 -0.597,0.299 0,0.149 0.149,0.224 0.299,0.224 0.335,0 0.97,0.038 1.269,0.113 1.231,0.261 1.53,0.857 1.603,2.126 0.076,1.195 0.076,2.24 0.076,8.063 v 6.568 c 0,3.583 0,6.532 -0.187,8.1 -0.149,1.082 -0.336,1.903 -1.083,2.053 -0.336,0.073 -0.783,0.148 -1.119,0.148 -0.224,0 -0.298,0.112 -0.298,0.224 0,0.224 0.186,0.299 0.596,0.299 1.12,0 3.472,-0.112 3.584,-0.112 0.186,0 2.537,0.112 4.59,0.112 0.411,0 0.598,-0.112 0.598,-0.299 0,-0.112 -0.075,-0.224 -0.299,-0.224 -0.336,0 -1.157,-0.075 -1.68,-0.148 -1.119,-0.15 -1.343,-0.971 -1.455,-2.053 -0.187,-1.568 -0.187,-4.517 -0.187,-8.1 V 2.575 c 0,-0.372 0.075,-0.634 0.299,-0.709 0.336,-0.149 0.97,-0.223 1.605,-0.223 0.858,0 3.134,-0.15 5.113,1.865 1.978,2.016 2.09,4.517 2.09,5.749 0,3.433 -2.837,6.083 -6.457,6.083 -0.783,0 -1.008,0.037 -1.008,0.335 0,0.187 0.225,0.262 0.411,0.262 0.187,0.037 0.597,0.037 0.784,0.037 5.299,0 9.181,-3.583 9.181,-8.882 0,-1.979 -1.045,-3.658 -1.866,-4.441 C 71.168,2.09 69.49,0.522 64.824,0.522 c -1.717,0 -3.881,0.113 -4.702,0.113" /></defs>
		<clipPath
   id="SVGID_10_">
			<use
   xlink:href="#SVGID_9_"
   overflow="visible"
   id="use379" />
		</clipPath>
		
			<linearGradient
   id="SVGID_11_"
   gradientUnits="userSpaceOnUse"
   x1="-82.746101"
   y1="259.12991"
   x2="-81.746101"
   y2="259.12991"
   gradientTransform="matrix(0,-28.2168,-28.2168,0,7376.3076,-2306.103)">
			<stop
   offset="0"
   style="stop-color:#6BB3DA"
   id="stop382" />
			<stop
   offset="1"
   style="stop-color:#22679B"
   id="stop384" />
		</linearGradient>
		<rect
   x="55.306999"
   y="0.52200001"
   clip-path="url(#SVGID_10_)"
   fill="url(#SVGID_11_)"
   width="18.325001"
   height="28.216999"
   id="rect387"
   style="fill:url(#SVGID_11_)" />
	</g>
	<g
   id="g404">
		<defs
   id="defs392"><path
     id="SVGID_12_"
     d="M 83.221,0.709 C 83.146,1.008 82.4,4.218 82.4,4.591 c 0,0.224 0.075,0.336 0.187,0.336 0.149,0 0.261,-0.075 0.373,-0.374 0.112,-0.261 0.224,-0.522 0.635,-1.156 0.596,-0.896 1.492,-1.158 3.807,-1.194 l 5.523,-0.075 v 15.787 c 0,3.583 0,6.532 -0.186,8.1 -0.15,1.082 -0.336,1.903 -1.082,2.053 -0.337,0.073 -0.785,0.148 -1.121,0.148 -0.223,0 -0.298,0.112 -0.298,0.224 0,0.224 0.187,0.299 0.597,0.299 1.12,0 3.471,-0.112 3.658,-0.112 0.186,0 2.538,0.112 4.591,0.112 0.41,0 0.597,-0.112 0.597,-0.299 0,-0.112 -0.075,-0.224 -0.299,-0.224 -0.336,0 -1.157,-0.075 -1.68,-0.148 -1.119,-0.15 -1.343,-0.971 -1.455,-2.053 -0.186,-1.568 -0.186,-4.517 -0.186,-8.1 V 2.128 l 4.702,0.075 c 3.583,0.074 4.478,0.932 4.591,2.052 l 0.037,0.411 c 0.038,0.523 0.112,0.633 0.299,0.633 0.149,0 0.261,-0.148 0.261,-0.484 0,-0.411 0.112,-2.986 0.112,-4.106 0,-0.224 0,-0.447 -0.187,-0.447 -0.149,0 -0.485,0.112 -1.045,0.186 -0.597,0.112 -1.455,0.187 -2.649,0.187 H 88.186 C 87.737,0.635 86.319,0.56 85.236,0.448 84.229,0.374 83.856,0 83.595,0 83.445,0 83.296,0.485 83.221,0.709" /></defs>
		<clipPath
   id="SVGID_13_">
			<use
   xlink:href="#SVGID_12_"
   overflow="visible"
   id="use394" />
		</clipPath>
		
			<linearGradient
   id="SVGID_14_"
   gradientUnits="userSpaceOnUse"
   x1="-82.7407"
   y1="259.10641"
   x2="-81.7407"
   y2="259.10641"
   gradientTransform="matrix(0,-28.7393,-28.7393,0,7540.7305,-2349.165)">
			<stop
   offset="0"
   style="stop-color:#6BB3DA"
   id="stop397" />
			<stop
   offset="1"
   style="stop-color:#22679B"
   id="stop399" />
		</linearGradient>
		<rect
   x="82.400002"
   clip-path="url(#SVGID_13_)"
   fill="url(#SVGID_14_)"
   width="23.663"
   height="28.739"
   id="rect402"
   y="0"
   style="fill:url(#SVGID_14_)" />
	</g>
	<g
   id="g419">
		<defs
   id="defs407"><path
     id="SVGID_15_"
     d="m 121.81,0.635 c -0.187,0 -2.538,-0.113 -3.77,-0.113 -0.41,0 -0.597,0.076 -0.597,0.299 0,0.149 0.149,0.224 0.299,0.224 0.261,0 0.747,0.038 1.157,0.15 0.821,0.186 1.194,0.82 1.269,2.089 0.075,1.195 0.075,2.24 0.075,8.063 v 6.568 c 0,3.583 0,6.532 -0.187,8.1 -0.15,1.082 -0.336,1.903 -1.082,2.053 -0.336,0.073 -0.784,0.148 -1.12,0.148 -0.224,0 -0.299,0.112 -0.299,0.224 0,0.224 0.187,0.299 0.598,0.299 1.119,0 3.47,-0.112 3.657,-0.112 0.187,0 2.538,0.112 4.59,0.112 0.411,0 0.598,-0.112 0.598,-0.299 0,-0.112 -0.075,-0.224 -0.299,-0.224 -0.335,0 -1.157,-0.075 -1.679,-0.148 -1.12,-0.15 -1.344,-0.971 -1.455,-2.053 -0.188,-1.568 -0.188,-4.517 -0.188,-8.1 v -6.568 c 0,-5.823 0,-6.868 0.075,-8.063 0.075,-1.306 0.374,-1.94 1.382,-2.126 0.447,-0.075 0.671,-0.113 0.932,-0.113 0.149,0 0.299,-0.075 0.299,-0.224 0,-0.223 -0.187,-0.299 -0.598,-0.299 -1.119,0 -3.47,0.113 -3.657,0.113" /></defs>
		<clipPath
   id="SVGID_16_">
			<use
   xlink:href="#SVGID_15_"
   overflow="visible"
   id="use409" />
		</clipPath>
		
			<linearGradient
   id="SVGID_17_"
   gradientUnits="userSpaceOnUse"
   x1="-82.746101"
   y1="259.13089"
   x2="-81.746101"
   y2="259.13089"
   gradientTransform="matrix(0,-28.2168,-28.2168,0,7434.0576,-2306.103)">
			<stop
   offset="0"
   style="stop-color:#6BB3DA"
   id="stop412" />
			<stop
   offset="1"
   style="stop-color:#22679B"
   id="stop414" />
		</linearGradient>
		<rect
   x="117.443"
   y="0.52200001"
   clip-path="url(#SVGID_16_)"
   fill="url(#SVGID_17_)"
   width="9.5550003"
   height="28.216999"
   id="rect417"
   style="fill:url(#SVGID_17_)" />
	</g>
	<g
   id="g434">
		<defs
   id="defs422"><path
     id="SVGID_18_"
     d="M 165.774,0.598 154.801,24.037 143.38,0.56 C 143.194,0.15 143.044,0 142.82,0 c -0.224,0 -0.373,0.262 -0.41,0.672 l -2.688,24.335 c -0.149,1.418 -0.261,2.874 -1.492,3.097 -0.561,0.112 -0.822,0.112 -1.12,0.112 -0.187,0 -0.373,0.075 -0.373,0.187 0,0.261 0.261,0.336 0.635,0.336 1.007,0 2.798,-0.112 3.134,-0.112 0.299,0 2.09,0.112 3.471,0.112 0.448,0 0.672,-0.075 0.672,-0.336 0,-0.112 -0.15,-0.187 -0.299,-0.187 -0.224,0 -0.783,-0.038 -1.418,-0.186 -0.559,-0.112 -0.97,-0.598 -0.97,-1.157 0,-0.635 0,-1.306 0.037,-1.904 l 1.493,-17.318 h 0.15 c 0.41,1.008 4.59,9.966 4.925,10.637 0.188,0.374 3.397,6.83 4.368,8.659 0.708,1.344 0.896,1.717 1.157,1.717 0.335,0 0.447,-0.336 1.232,-1.978 l 9.144,-19.408 h 0.111 l 1.792,19.371 c 0.075,0.672 0.037,1.306 -0.149,1.343 -0.186,0.038 -0.262,0.112 -0.262,0.262 0,0.186 0.187,0.298 1.045,0.373 1.381,0.112 5.412,0.15 6.233,0.15 0.448,0 0.784,-0.113 0.784,-0.337 0,-0.149 -0.111,-0.186 -0.298,-0.186 -0.373,0 -1.343,0 -2.426,-0.336 -1.606,-0.523 -1.867,-2.612 -2.015,-3.956 L 166.782,1.008 C 166.707,0.299 166.595,0 166.333,0 c -0.261,0 -0.41,0.262 -0.559,0.598" /></defs>
		<clipPath
   id="SVGID_19_">
			<use
   xlink:href="#SVGID_18_"
   overflow="visible"
   id="use424" />
		</clipPath>
		
			<linearGradient
   id="SVGID_20_"
   gradientUnits="userSpaceOnUse"
   x1="-82.727997"
   y1="259.12009"
   x2="-81.727997"
   y2="259.12009"
   gradientTransform="matrix(0,-28.7764,-28.7764,0,7611.8901,-2351.832)">
			<stop
   offset="0"
   style="stop-color:#6BB3DA"
   id="stop427" />
			<stop
   offset="1"
   style="stop-color:#22679B"
   id="stop429" />
		</linearGradient>
		<rect
   x="136.737"
   clip-path="url(#SVGID_19_)"
   fill="url(#SVGID_20_)"
   width="37.285"
   height="28.777"
   id="rect432"
   y="0"
   style="fill:url(#SVGID_20_)" />
	</g>
	<g
   id="g449">
		<defs
   id="defs437"><path
     id="SVGID_21_"
     d="M 188.685,16.124 191.97,6.046 c 0.186,-0.559 0.373,-0.559 0.56,0 l 3.546,10.078 c 0.037,0.149 0.037,0.261 -0.15,0.261 h -7.129 c -0.112,0 -0.187,-0.074 -0.112,-0.261 m 3.36,-14.668 -8.473,23.177 c -0.672,1.867 -1.418,3.285 -3.136,3.508 -0.297,0.037 -0.82,0.075 -1.081,0.075 -0.187,0 -0.336,0.075 -0.336,0.224 0,0.224 0.223,0.299 0.709,0.299 1.753,0 3.806,-0.112 4.218,-0.112 0.41,0 2.015,0.112 2.911,0.112 0.336,0 0.559,-0.075 0.559,-0.299 0,-0.149 -0.112,-0.224 -0.373,-0.224 h -0.373 c -0.635,0 -1.419,-0.335 -1.419,-1.083 0,-0.671 0.188,-1.566 0.523,-2.5 l 2.24,-6.606 c 0.074,-0.186 0.187,-0.299 0.373,-0.299 h 8.024 c 0.187,0 0.261,0.075 0.336,0.225 l 3.471,9.18 c 0.225,0.598 0,0.935 -0.224,1.008 -0.149,0.037 -0.262,0.113 -0.262,0.262 0,0.224 0.412,0.224 1.121,0.261 2.575,0.075 5.3,0.075 5.859,0.075 0.411,0 0.747,-0.075 0.747,-0.299 0,-0.186 -0.149,-0.224 -0.374,-0.224 -0.373,0 -0.932,-0.038 -1.493,-0.224 -0.784,-0.223 -1.865,-0.821 -3.209,-4.143 C 200.106,18.177 194.246,2.762 193.687,1.344 193.239,0.187 193.09,0 192.865,0 c -0.223,0 -0.372,0.224 -0.82,1.456" /></defs>
		<clipPath
   id="SVGID_22_">
			<use
   xlink:href="#SVGID_21_"
   overflow="visible"
   id="use439" />
		</clipPath>
		
			<linearGradient
   id="SVGID_23_"
   gradientUnits="userSpaceOnUse"
   x1="-82.7407"
   y1="259.10449"
   x2="-81.7407"
   y2="259.10449"
   gradientTransform="matrix(0,-28.7393,-28.7393,0,7639.7461,-2349.165)">
			<stop
   offset="0"
   style="stop-color:#6BB3DA"
   id="stop442" />
			<stop
   offset="1"
   style="stop-color:#22679B"
   id="stop444" />
		</linearGradient>
		<rect
   x="179.019"
   clip-path="url(#SVGID_22_)"
   fill="url(#SVGID_23_)"
   width="28.440001"
   height="28.739"
   id="rect447"
   y="0"
   style="fill:url(#SVGID_23_)" />
	</g>
	<g
   id="g464">
		<defs
   id="defs452"><path
     id="SVGID_24_"
     d="m 218.466,0.635 c -0.186,0 -2.538,-0.113 -4.217,-0.113 -0.411,0 -0.597,0.076 -0.597,0.299 0,0.149 0.148,0.224 0.298,0.224 0.336,0 0.97,0.038 1.269,0.113 1.232,0.261 1.531,0.857 1.605,2.126 0.075,1.195 0.075,2.24 0.075,8.063 v 6.568 c 0,3.583 0,6.532 -0.187,8.1 -0.15,1.082 -0.336,1.903 -1.083,2.053 -0.335,0.073 -0.783,0.148 -1.119,0.148 -0.224,0 -0.298,0.112 -0.298,0.224 0,0.224 0.186,0.299 0.596,0.299 0.56,0 1.381,-0.037 2.128,-0.075 0.746,0 1.381,-0.037 1.53,-0.037 1.082,0 2.239,0.037 3.807,0.112 1.568,0.038 3.508,0.112 6.196,0.112 1.978,0 2.09,-0.149 2.35,-1.008 0.299,-1.082 0.561,-3.321 0.561,-3.732 0,-0.411 -0.038,-0.561 -0.224,-0.561 -0.224,0 -0.299,0.187 -0.337,0.487 -0.111,0.708 -0.484,1.642 -0.97,2.239 -0.895,1.082 -2.537,1.119 -4.516,1.119 -2.911,0 -3.881,-0.262 -4.478,-0.858 -0.672,-0.672 -0.821,-3.06 -0.821,-8.547 v -6.643 c 0,-5.823 0,-6.868 0.075,-8.063 0.074,-1.306 0.373,-1.94 1.455,-2.126 0.448,-0.075 0.971,-0.113 1.231,-0.113 0.149,0 0.299,-0.075 0.299,-0.224 0,-0.223 -0.187,-0.299 -0.597,-0.299 -1.12,0 -3.845,0.113 -4.031,0.113" /></defs>
		<clipPath
   id="SVGID_25_">
			<use
   xlink:href="#SVGID_24_"
   overflow="visible"
   id="use454" />
		</clipPath>
		
			<linearGradient
   id="SVGID_26_"
   gradientUnits="userSpaceOnUse"
   x1="-82.732399"
   y1="259.13959"
   x2="-81.732399"
   y2="259.13959"
   gradientTransform="matrix(0,-28.3281,-28.3281,0,7563.4424,-2314.8228)">
			<stop
   offset="0"
   style="stop-color:#6BB3DA"
   id="stop457" />
			<stop
   offset="1"
   style="stop-color:#22679B"
   id="stop459" />
		</linearGradient>
		<rect
   x="213.65199"
   y="0.52200001"
   clip-path="url(#SVGID_25_)"
   fill="url(#SVGID_26_)"
   width="17.728001"
   height="28.329"
   id="rect462"
   style="fill:url(#SVGID_26_)" />
	</g>
	<g
   id="g479">
		<defs
   id="defs467"><path
     id="SVGID_27_"
     d="M 77.956,60.871 66.983,84.31 55.562,60.833 c -0.186,-0.409 -0.335,-0.56 -0.559,-0.56 -0.224,0 -0.373,0.261 -0.411,0.673 L 51.905,85.28 c -0.15,1.418 -0.261,2.874 -1.493,3.098 -0.56,0.112 -0.821,0.112 -1.12,0.112 -0.186,0 -0.373,0.074 -0.373,0.187 0,0.261 0.261,0.336 0.634,0.336 1.008,0 2.8,-0.112 3.136,-0.112 0.299,0 2.09,0.112 3.471,0.112 0.447,0 0.671,-0.075 0.671,-0.336 0,-0.112 -0.149,-0.187 -0.298,-0.187 -0.224,0 -0.783,-0.038 -1.419,-0.187 -0.559,-0.112 -0.97,-0.599 -0.97,-1.157 0,-0.635 0,-1.306 0.038,-1.903 l 1.493,-17.318 h 0.149 c 0.41,1.008 4.59,9.966 4.926,10.638 0.187,0.373 3.397,6.83 4.368,8.658 0.709,1.344 0.895,1.717 1.156,1.717 0.336,0 0.448,-0.336 1.232,-1.979 L 76.65,67.553 h 0.112 l 1.792,19.37 c 0.074,0.673 0.037,1.306 -0.15,1.344 -0.187,0.037 -0.261,0.111 -0.261,0.261 0,0.187 0.187,0.299 1.044,0.373 1.382,0.112 5.413,0.149 6.234,0.149 0.448,0 0.784,-0.112 0.784,-0.336 0,-0.149 -0.113,-0.187 -0.299,-0.187 -0.373,0 -1.344,0 -2.426,-0.336 -1.604,-0.522 -1.866,-2.612 -2.016,-3.956 l -2.5,-22.954 c -0.075,-0.709 -0.186,-1.008 -0.448,-1.008 -0.261,0 -0.41,0.261 -0.56,0.598" /></defs>
		<clipPath
   id="SVGID_28_">
			<use
   xlink:href="#SVGID_27_"
   overflow="visible"
   id="use469" />
		</clipPath>
		
			<linearGradient
   id="SVGID_29_"
   gradientUnits="userSpaceOnUse"
   x1="-82.726601"
   y1="259.11819"
   x2="-81.726601"
   y2="259.11819"
   gradientTransform="matrix(0,-28.7759,-28.7759,0,7523.9331,-2291.4941)">
			<stop
   offset="0"
   style="stop-color:#6BB3DA"
   id="stop472" />
			<stop
   offset="1"
   style="stop-color:#22679B"
   id="stop474" />
		</linearGradient>
		<rect
   x="48.918999"
   y="60.272999"
   clip-path="url(#SVGID_28_)"
   fill="url(#SVGID_29_)"
   width="37.285999"
   height="28.775999"
   id="rect477"
   style="fill:url(#SVGID_29_)" />
	</g>
	<g
   id="g494">
		<defs
   id="defs482"><path
     id="SVGID_30_"
     d="m 100.42,60.908 c -0.187,0 -2.538,-0.111 -3.77,-0.111 -0.41,0 -0.597,0.074 -0.597,0.298 0,0.149 0.15,0.224 0.299,0.224 0.261,0 0.746,0.038 1.157,0.15 0.82,0.186 1.194,0.819 1.269,2.09 0.074,1.194 0.074,2.24 0.074,8.062 v 6.568 c 0,3.583 0,6.532 -0.186,8.1 -0.149,1.082 -0.337,1.903 -1.083,2.054 -0.335,0.073 -0.784,0.148 -1.119,0.148 -0.224,0 -0.299,0.111 -0.299,0.224 0,0.224 0.187,0.299 0.598,0.299 1.119,0 3.47,-0.112 3.657,-0.112 0.186,0 2.538,0.112 4.59,0.112 0.411,0 0.598,-0.112 0.598,-0.299 0,-0.112 -0.075,-0.224 -0.299,-0.224 -0.336,0 -1.157,-0.075 -1.679,-0.148 -1.12,-0.15 -1.344,-0.972 -1.456,-2.054 -0.186,-1.567 -0.186,-4.517 -0.186,-8.1 V 71.62 c 0,-5.821 0,-6.867 0.075,-8.062 0.074,-1.307 0.372,-1.941 1.38,-2.128 0.448,-0.074 0.672,-0.112 0.934,-0.112 0.149,0 0.297,-0.074 0.297,-0.224 0,-0.224 -0.186,-0.298 -0.596,-0.298 -1.12,10e-4 -3.472,0.112 -3.658,0.112" /></defs>
		<clipPath
   id="SVGID_31_">
			<use
   xlink:href="#SVGID_30_"
   overflow="visible"
   id="use484" />
		</clipPath>
		
			<linearGradient
   id="SVGID_32_"
   gradientUnits="userSpaceOnUse"
   x1="-82.733902"
   y1="259.14359"
   x2="-81.733902"
   y2="259.14359"
   gradientTransform="matrix(0,-28.2163,-28.2163,0,7412.9287,-2245.4211)">
			<stop
   offset="0"
   style="stop-color:#6BB3DA"
   id="stop487" />
			<stop
   offset="1"
   style="stop-color:#22679B"
   id="stop489" />
		</linearGradient>
		<rect
   x="96.053001"
   y="60.797001"
   clip-path="url(#SVGID_31_)"
   fill="url(#SVGID_32_)"
   width="9.5550003"
   height="28.216"
   id="rect492"
   style="fill:url(#SVGID_32_)" />
	</g>
	<g
   id="g509">
		<defs
   id="defs497"><path
     id="SVGID_33_"
     d="m 120.049,62.141 -0.037,21.386 c 0,3.396 -0.187,4.479 -1.119,4.74 -0.561,0.186 -1.232,0.224 -1.531,0.224 -0.186,0 -0.299,0.074 -0.299,0.224 0,0.262 0.224,0.299 0.598,0.299 1.679,0 3.247,-0.112 3.582,-0.112 0.336,0 1.829,0.112 3.957,0.112 0.448,0 0.671,-0.075 0.671,-0.299 0,-0.149 -0.111,-0.224 -0.298,-0.224 -0.336,0 -1.157,-0.038 -1.866,-0.224 -1.008,-0.299 -1.381,-1.27 -1.456,-4.33 L 121.766,66.06 c 1.195,1.343 5.412,6.046 9.741,10.711 3.957,4.255 9.331,9.741 9.742,10.115 1.978,1.978 2.425,2.388 2.725,2.388 0.261,0 0.336,-0.186 0.336,-2.649 l 0.073,-21.871 c 0,-2.239 0.15,-3.061 1.382,-3.322 0.448,-0.112 0.709,-0.112 0.895,-0.112 0.261,0 0.411,-0.111 0.411,-0.261 0,-0.225 -0.261,-0.261 -0.672,-0.261 -1.53,0 -2.762,0.111 -3.172,0.111 -0.411,0 -2.202,-0.111 -3.882,-0.111 -0.448,0 -0.746,0.036 -0.746,0.261 0,0.149 0.037,0.261 0.298,0.261 0.299,0 1.157,0.038 1.83,0.188 1.156,0.297 1.417,1.117 1.455,3.545 l 0.41,18.96 c -1.194,-1.232 -5.262,-5.784 -8.957,-9.742 -5.748,-6.157 -11.309,-12.167 -11.869,-12.801 -0.373,-0.374 -1.008,-1.195 -1.306,-1.195 -0.299,-0.002 -0.411,0.41 -0.411,1.866" /></defs>
		<clipPath
   id="SVGID_34_">
			<use
   xlink:href="#SVGID_33_"
   overflow="visible"
   id="use499" />
		</clipPath>
		
			<linearGradient
   id="SVGID_35_"
   gradientUnits="userSpaceOnUse"
   x1="-82.736801"
   y1="259.0947"
   x2="-81.736801"
   y2="259.0947"
   gradientTransform="matrix(0,-28.9996,-28.9996,0,7645.7358,-2310.071)">
			<stop
   offset="0"
   style="stop-color:#6BB3DA"
   id="stop502" />
			<stop
   offset="1"
   style="stop-color:#22679B"
   id="stop504" />
		</linearGradient>
		<rect
   x="117.063"
   y="60.272999"
   clip-path="url(#SVGID_34_)"
   fill="url(#SVGID_35_)"
   width="30.007999"
   height="29"
   id="rect507"
   style="fill:url(#SVGID_35_)" />
	</g>
	<g
   id="g524">
		<defs
   id="defs512"><path
     id="SVGID_36_"
     d="m 162.445,86.588 c -0.299,-0.412 -0.374,-1.904 -0.412,-2.838 -0.037,-0.709 -0.074,-4.143 -0.074,-8.099 v -4.628 c 0,-2.874 0,-6.682 0.037,-7.95 0,-0.411 0.112,-0.598 0.449,-0.747 0.298,-0.147 1.679,-0.261 2.425,-0.261 4.442,0 8.696,0.522 12.205,4.218 1.53,1.604 3.583,4.665 3.583,9.405 0,3.434 -1.045,7.017 -2.985,8.92 -2.203,2.202 -5.413,3.471 -8.884,3.471 -4.404,0 -5.859,-0.782 -6.344,-1.491 m 2.985,-25.791 c -2.239,0 -4.591,0.111 -5.038,0.111 -0.188,0 -2.538,-0.111 -4.218,-0.111 -0.41,0 -0.597,0.074 -0.597,0.298 0,0.149 0.149,0.224 0.299,0.224 0.335,0 0.97,0.038 1.268,0.112 1.232,0.262 1.53,0.857 1.605,2.128 0.075,1.194 0.075,2.24 0.075,8.062 v 6.568 c 0,3.583 0,6.532 -0.187,8.1 -0.149,1.082 -0.335,1.903 -1.082,2.054 -0.336,0.073 -0.784,0.148 -1.12,0.148 -0.224,0 -0.299,0.111 -0.299,0.224 0,0.224 0.187,0.299 0.598,0.299 0.56,0 1.418,-0.075 2.165,-0.075 0.783,-0.037 1.418,-0.037 1.493,-0.037 0.186,0 1.455,0.112 3.097,0.225 1.605,0.111 3.583,0.224 5.188,0.224 6.345,0 9.704,-2.612 11.309,-4.291 2.09,-2.203 4.031,-5.823 4.031,-10.526 0,-4.44 -1.754,-7.539 -3.62,-9.479 -3.874,-4.004 -9.564,-4.261 -13.407,-4.261 -0.564,-0.003 -1.088,0.003 -1.56,0.003" /></defs>
		<clipPath
   id="SVGID_37_">
			<use
   xlink:href="#SVGID_36_"
   overflow="visible"
   id="use514" />
		</clipPath>
		
			<linearGradient
   id="SVGID_38_"
   gradientUnits="userSpaceOnUse"
   x1="-82.735397"
   y1="259.12601"
   x2="-81.735397"
   y2="259.12601"
   gradientTransform="matrix(0,-28.5577,-28.5577,0,7569.8291,-2273.386)">
			<stop
   offset="0"
   style="stop-color:#6BB3DA"
   id="stop517" />
			<stop
   offset="1"
   style="stop-color:#22679B"
   id="stop519" />
		</linearGradient>
		<rect
   x="155.577"
   y="60.791"
   clip-path="url(#SVGID_37_)"
   fill="url(#SVGID_38_)"
   width="28.440001"
   height="28.558001"
   id="rect522"
   style="fill:url(#SVGID_38_)" />
	</g>
	<g
   id="g549">
		<defs
   id="defs527"><path
     id="SVGID_39_"
     d="m 105.968,38.508 c -0.737,1.699 0.503,7.546 3.886,8.533 3.365,0.981 5.863,0.564 6.171,0.507 -0.406,0.18 -8.22,3.418 -6.209,5.429 3.546,3.546 6.168,-5.315 6.226,-5.433 l 0.017,-0.003 c 0,0 -4.904,-10.678 -8.241,-10.679 -0.708,0 -1.345,0.481 -1.85,1.646" /></defs>
		<clipPath
   id="SVGID_40_">
			<use
   xlink:href="#SVGID_39_"
   overflow="visible"
   id="use529" />
		</clipPath>
		
			<linearGradient
   id="SVGID_41_"
   gradientUnits="userSpaceOnUse"
   x1="-82.953102"
   y1="260.0166"
   x2="-81.954002"
   y2="260.0166"
   gradientTransform="matrix(0,-16.9651,-16.9651,0,4521.8604,-1353.4913)">
			<stop
   offset="0"
   style="stop-color:#6BB3DA"
   id="stop532" />
			<stop
   offset="0.3336"
   style="stop-color:#69B0D8"
   id="stop534" />
			<stop
   offset="0.5347"
   style="stop-color:#61A8D1"
   id="stop536" />
			<stop
   offset="0.7008"
   style="stop-color:#539AC5"
   id="stop538" />
			<stop
   offset="0.8476"
   style="stop-color:#3F85B4"
   id="stop540" />
			<stop
   offset="0.9806"
   style="stop-color:#266B9F"
   id="stop542" />
			<stop
   offset="1"
   style="stop-color:#22679B"
   id="stop544" />
		</linearGradient>
		<rect
   x="105.231"
   y="36.862"
   clip-path="url(#SVGID_40_)"
   fill="url(#SVGID_41_)"
   width="10.828"
   height="19.66"
   id="rect547"
   style="fill:url(#SVGID_41_)" />
	</g>
	<g
   id="g574">
		<defs
   id="defs552"><path
     id="SVGID_42_"
     d="m 116.059,47.541 0.018,0.003 c 0.058,0.117 2.68,8.979 6.225,5.433 2.012,-2.011 -5.802,-5.249 -6.209,-5.429 0.309,0.058 2.807,0.475 6.171,-0.507 3.383,-0.987 4.624,-6.834 3.886,-8.533 -0.505,-1.165 -1.142,-1.646 -1.85,-1.646 -3.336,10e-4 -8.241,10.679 -8.241,10.679" /></defs>
		<clipPath
   id="SVGID_43_">
			<use
   xlink:href="#SVGID_42_"
   overflow="visible"
   id="use554" />
		</clipPath>
		
			<linearGradient
   id="SVGID_44_"
   gradientUnits="userSpaceOnUse"
   x1="-82.953102"
   y1="255.6797"
   x2="-81.954002"
   y2="255.6797"
   gradientTransform="matrix(0,-16.9651,16.9651,0,-4216.1758,-1353.4913)">
			<stop
   offset="0"
   style="stop-color:#6BB3DA"
   id="stop557" />
			<stop
   offset="0.3336"
   style="stop-color:#69B0D8"
   id="stop559" />
			<stop
   offset="0.5347"
   style="stop-color:#61A8D1"
   id="stop561" />
			<stop
   offset="0.7008"
   style="stop-color:#539AC5"
   id="stop563" />
			<stop
   offset="0.8476"
   style="stop-color:#3F85B4"
   id="stop565" />
			<stop
   offset="0.9806"
   style="stop-color:#266B9F"
   id="stop567" />
			<stop
   offset="1"
   style="stop-color:#22679B"
   id="stop569" />
		</linearGradient>
		<rect
   x="116.059"
   y="36.862"
   clip-path="url(#SVGID_43_)"
   fill="url(#SVGID_44_)"
   width="10.829"
   height="19.66"
   id="rect572"
   style="fill:url(#SVGID_44_)" />
	</g>
	<g
   id="g583">
		
			<linearGradient
   id="SVGID_45_"
   gradientUnits="userSpaceOnUse"
   x1="73.8545"
   y1="26.811501"
   x2="168.99609"
   y2="26.811501"
   gradientTransform="rotate(180,84.6455,35.874)">
			<stop
   offset="0"
   style="stop-color:#22679B"
   id="stop576" />
			<stop
   offset="1"
   style="stop-color:#6BB3DA"
   id="stop578" />
		</linearGradient>
		<path
   fill="url(#SVGID_45_)"
   d="M 94.761,45.611 H 0.969 c -0.373,0 -0.675,-0.302 -0.675,-0.675 0,-0.372 0.302,-0.674 0.675,-0.674 h 93.792 c 0.373,0 0.675,0.302 0.675,0.674 0,0.374 -0.302,0.675 -0.675,0.675 z"
   id="path581"
   style="fill:url(#SVGID_45_)" />
	</g>
	<g
   id="g592">
		
			<linearGradient
   id="SVGID_46_"
   gradientUnits="userSpaceOnUse"
   x1="74.529297"
   y1="26.812"
   x2="74.529297"
   y2="26.812"
   gradientTransform="rotate(180,84.6455,35.874)">
			<stop
   offset="0"
   style="stop-color:#22679B"
   id="stop585" />
			<stop
   offset="1"
   style="stop-color:#6BB3DA"
   id="stop587" />
		</linearGradient>
		<path
   fill="none"
   stroke="url(#SVGID_46_)"
   stroke-linecap="round"
   stroke-linejoin="round"
   stroke-miterlimit="10"
   d="M 94.761,44.937"
   id="path590"
   style="stroke:url(#SVGID_46_)" />
	</g>
</g>
</svg>
